<svg width="52" height="52" viewBox="0 0 52 52" fill="none" xmlns="http://www.w3.org/2000/svg">
<path d="M49.4 23.4H45.266L48.646 20.046C48.8884 19.8036 49.0807 19.5158 49.2119 19.199C49.3431 18.8823 49.4106 18.5428 49.4106 18.2C49.4106 17.8572 49.3431 17.5177 49.2119 17.201C49.0807 16.8842 48.8884 16.5964 48.646 16.354C48.4036 16.1116 48.1158 15.9193 47.799 15.7881C47.4823 15.6569 47.1428 15.5894 46.8 15.5894C46.4572 15.5894 46.1177 15.6569 45.801 15.7881C45.4842 15.9193 45.1964 16.1116 44.954 16.354L37.934 23.4H32.266L38.246 17.446C38.4884 17.2036 38.6807 16.9158 38.8119 16.599C38.9431 16.2823 39.0106 15.9428 39.0106 15.6C39.0106 15.2572 38.9431 14.9177 38.8119 14.601C38.6807 14.2842 38.4884 13.9964 38.246 13.754C38.0036 13.5116 37.7158 13.3193 37.399 13.1881C37.0823 13.0569 36.7428 12.9894 36.4 12.9894C36.0572 12.9894 35.7177 13.0569 35.401 13.1881C35.0842 13.3193 34.7964 13.5116 34.554 13.754L28.6 19.734V14.066L35.646 7.046C35.8884 6.80358 36.0807 6.51578 36.2119 6.19905C36.3431 5.88231 36.4106 5.54283 36.4106 5.2C36.4106 4.85717 36.3431 4.51769 36.2119 4.20095C36.0807 3.88421 35.8884 3.59642 35.646 3.354C35.4036 3.11158 35.1158 2.91928 34.799 2.78808C34.4823 2.65689 34.1428 2.58936 33.8 2.58936C33.1076 2.58936 32.4436 2.86441 31.954 3.354L28.6 6.734V2.6C28.6 1.91044 28.3261 1.24912 27.8385 0.761522C27.3509 0.273928 26.6896 0 26 0C25.3104 0 24.6491 0.273928 24.1615 0.761522C23.6739 1.24912 23.4 1.91044 23.4 2.6V6.734L20.046 3.354C19.8036 3.11158 19.5158 2.91928 19.199 2.78808C18.8823 2.65689 18.5428 2.58936 18.2 2.58936C17.8572 2.58936 17.5177 2.65689 17.201 2.78808C16.8842 2.91928 16.5964 3.11158 16.354 3.354C15.8644 3.84359 15.5894 4.50762 15.5894 5.2C15.5894 5.89238 15.8644 6.55641 16.354 7.046L23.4 14.066V19.734L17.446 13.754C17.2036 13.5116 16.9158 13.3193 16.599 13.1881C16.2823 13.0569 15.9428 12.9894 15.6 12.9894C15.2572 12.9894 14.9177 13.0569 14.601 13.1881C14.2842 13.3193 13.9964 13.5116 13.754 13.754C13.5116 13.9964 13.3193 14.2842 13.1881 14.601C13.0569 14.9177 12.9894 15.2572 12.9894 15.6C12.9894 15.9428 13.0569 16.2823 13.1881 16.599C13.3193 16.9158 13.5116 17.2036 13.754 17.446L19.734 23.4H14.066L7.046 16.354C6.55641 15.8644 5.89238 15.5894 5.2 15.5894C4.50762 15.5894 3.84359 15.8644 3.354 16.354C2.86441 16.8436 2.58936 17.5076 2.58936 18.2C2.58936 18.8924 2.86441 19.5564 3.354 20.046L6.734 23.4H2.6C1.91044 23.4 1.24912 23.6739 0.761522 24.1615C0.273928 24.6491 0 25.3104 0 26C0 26.6896 0.273928 27.3509 0.761522 27.8385C1.24912 28.3261 1.91044 28.6 2.6 28.6H6.734L3.354 31.954C3.11031 32.1957 2.91688 32.4833 2.78488 32.8001C2.65288 33.1169 2.58492 33.4568 2.58492 33.8C2.58492 34.1432 2.65288 34.4831 2.78488 34.7999C2.91688 35.1167 3.11031 35.4043 3.354 35.646C3.5957 35.8897 3.88327 36.0831 4.2001 36.2151C4.51693 36.3471 4.85677 36.4151 5.2 36.4151C5.54323 36.4151 5.88307 36.3471 6.1999 36.2151C6.51673 36.0831 6.8043 35.8897 7.046 35.646L14.066 28.6H19.734L13.754 34.554C13.5103 34.7957 13.3169 35.0833 13.1849 35.4001C13.0529 35.7169 12.9849 36.0568 12.9849 36.4C12.9849 36.7432 13.0529 37.0831 13.1849 37.3999C13.3169 37.7167 13.5103 38.0043 13.754 38.246C13.9957 38.4897 14.2833 38.6831 14.6001 38.8151C14.9169 38.9471 15.2568 39.0151 15.6 39.0151C15.9432 39.0151 16.2831 38.9471 16.5999 38.8151C16.9167 38.6831 17.2043 38.4897 17.446 38.246L23.4 32.266V37.934L16.354 44.954C15.8644 45.4436 15.5894 46.1076 15.5894 46.8C15.5894 47.4924 15.8644 48.1564 16.354 48.646C16.8436 49.1356 17.5076 49.4106 18.2 49.4106C18.8924 49.4106 19.5564 49.1356 20.046 48.646L23.4 45.266V49.4C23.4 50.0896 23.6739 50.7509 24.1615 51.2385C24.6491 51.7261 25.3104 52 26 52C26.6896 52 27.3509 51.7261 27.8385 51.2385C28.3261 50.7509 28.6 50.0896 28.6 49.4V45.266L31.954 48.646C32.1957 48.8897 32.4833 49.0831 32.8001 49.2151C33.1169 49.3471 33.4568 49.4151 33.8 49.4151C34.1432 49.4151 34.4831 49.3471 34.7999 49.2151C35.1167 49.0831 35.4043 48.8897 35.646 48.646C35.8897 48.4043 36.0831 48.1167 36.2151 47.7999C36.3471 47.4831 36.4151 47.1432 36.4151 46.8C36.4151 46.4568 36.3471 46.1169 36.2151 45.8001C36.0831 45.4833 35.8897 45.1957 35.646 44.954L28.6 37.934V32.266L34.554 38.246C34.7957 38.4897 35.0833 38.6831 35.4001 38.8151C35.7169 38.9471 36.0568 39.0151 36.4 39.0151C36.7432 39.0151 37.0831 38.9471 37.3999 38.8151C37.7167 38.6831 38.0043 38.4897 38.246 38.246C38.4897 38.0043 38.6831 37.7167 38.8151 37.3999C38.9471 37.0831 39.0151 36.7432 39.0151 36.4C39.0151 36.0568 38.9471 35.7169 38.8151 35.4001C38.6831 35.0833 38.4897 34.7957 38.246 34.554L32.266 28.6H37.934L44.954 35.646C45.1957 35.8897 45.4833 36.0831 45.8001 36.2151C46.1169 36.3471 46.4568 36.4151 46.8 36.4151C47.1432 36.4151 47.4831 36.3471 47.7999 36.2151C48.1167 36.0831 48.4043 35.8897 48.646 35.646C48.8897 35.4043 49.0831 35.1167 49.2151 34.7999C49.3471 34.4831 49.4151 34.1432 49.4151 33.8C49.4151 33.4568 49.3471 33.1169 49.2151 32.8001C49.0831 32.4833 48.8897 32.1957 48.646 31.954L45.266 28.6H49.4C50.0896 28.6 50.7509 28.3261 51.2385 27.8385C51.7261 27.3509 52 26.6896 52 26C52 25.3104 51.7261 24.6491 51.2385 24.1615C50.7509 23.6739 50.0896 23.4 49.4 23.4Z" fill="white" fill-opacity="0.4"/>
</svg>
