<svg width="27" height="27" viewBox="0 0 27 27" fill="none" xmlns="http://www.w3.org/2000/svg">
<path d="M23.753 21.7024L22.1228 20.0722L24.7784 20.0824C24.9695 20.0825 25.1589 20.0448 25.3355 19.9716C25.5122 19.8985 25.6727 19.7912 25.8079 19.656C25.943 19.5208 26.0503 19.3603 26.1235 19.1837C26.1966 19.007 26.2343 18.8177 26.2343 18.6265C26.2343 18.4353 26.1966 18.246 26.1235 18.0694C26.0503 17.8927 25.943 17.7322 25.8079 17.597C25.6727 17.4618 25.5122 17.3546 25.3355 17.2814C25.1589 17.2082 24.9695 17.1706 24.7784 17.1706L19.2315 17.1808L16.9963 14.9457L21.7024 14.9559C21.8936 14.9559 22.083 14.9183 22.2596 14.8451C22.4362 14.7719 22.5967 14.6647 22.7319 14.5295C22.8671 14.3943 22.9744 14.2338 23.0475 14.0572C23.1207 13.8805 23.1584 13.6912 23.1584 13.5C23.1584 13.3088 23.1207 13.1195 23.0475 12.9428C22.9744 12.7662 22.8671 12.6057 22.7319 12.4705C22.5967 12.3353 22.4362 12.2281 22.2596 12.1549C22.083 12.0817 21.8936 12.0441 21.7024 12.0441L16.9963 12.0543L19.2315 9.81915L24.7784 9.8294C24.9695 9.8294 25.1589 9.79174 25.3355 9.71858C25.5122 9.64541 25.6727 9.53816 25.8079 9.40297C25.943 9.26777 26.0503 9.10727 26.1235 8.93063C26.1966 8.75399 26.2343 8.56466 26.2343 8.37347C26.2343 8.18227 26.1966 7.99295 26.1235 7.81631C26.0503 7.63967 25.943 7.47917 25.8079 7.34397C25.5348 7.07093 25.1645 6.91754 24.7784 6.91754L22.1228 6.92779L23.753 5.29755C24.025 5.02563 24.1777 4.65681 24.1777 4.27225C24.1777 3.88769 24.025 3.51887 23.753 3.24694C23.4811 2.97502 23.1123 2.82225 22.7277 2.82225C22.3432 2.82225 21.9744 2.97502 21.7024 3.24694L20.0722 4.87718L20.0825 2.22164C20.0825 2.03044 20.0448 1.84112 19.9716 1.66448C19.8985 1.48784 19.7912 1.32734 19.656 1.19214C19.5208 1.05694 19.3603 0.9497 19.1837 0.876533C19.007 0.803366 18.8177 0.765707 18.6265 0.765707C18.2404 0.765707 17.8701 0.919099 17.597 1.19214C17.324 1.46518 17.1706 1.8355 17.1706 2.22164L17.1808 7.76854L14.9457 10.0037L14.9559 5.29756C14.9559 5.10636 14.9183 4.91704 14.8451 4.74039C14.7719 4.56375 14.6647 4.40325 14.5295 4.26805C14.3943 4.13286 14.2338 4.02562 14.0572 3.95245C13.8805 3.87928 13.6912 3.84162 13.5 3.84162C13.3088 3.84162 13.1195 3.87928 12.9428 3.95245C12.7662 4.02562 12.6057 4.13286 12.4705 4.26805C12.3353 4.40325 12.2281 4.56375 12.1549 4.74039C12.0817 4.91704 12.0441 5.10636 12.0441 5.29756L12.0543 10.0037L9.81916 7.76854L9.82941 2.22164C9.82941 1.8355 9.67602 1.46518 9.40298 1.19214C9.12994 0.919099 8.75961 0.765707 8.37348 0.765707C7.98734 0.765707 7.61702 0.919099 7.34398 1.19214C7.07094 1.46518 6.91754 1.8355 6.91754 2.22164L6.9278 4.87718L5.29756 3.24694C5.02563 2.97502 4.65682 2.82225 4.27226 2.82225C3.88769 2.82225 3.51888 2.97502 3.24695 3.24694C2.97502 3.51887 2.82226 3.88769 2.82226 4.27225C2.82226 4.65681 2.97502 5.02563 3.24695 5.29755L4.87719 6.92779L2.22165 6.91754C2.03023 6.91675 1.84055 6.95388 1.66356 7.02676C1.48656 7.09965 1.32575 7.20687 1.1904 7.34222C1.05504 7.47757 0.94783 7.63839 0.874942 7.81538C0.802051 7.99238 0.764928 8.18205 0.765713 8.37347C0.764928 8.56489 0.802053 8.75456 0.874941 8.93156C0.947831 9.10855 1.05504 9.26937 1.1904 9.40472C1.32575 9.54007 1.48656 9.64729 1.66356 9.72017C1.84056 9.79306 2.03023 9.83019 2.22165 9.8294L7.76855 9.81915L10.0037 12.0543L5.29756 12.0441C5.10615 12.0433 4.91647 12.0804 4.73947 12.1533C4.56248 12.2262 4.40166 12.3334 4.26631 12.4687C4.13096 12.6041 4.02375 12.7649 3.95086 12.9419C3.87797 13.1189 3.84085 13.3086 3.84163 13.5C3.84084 13.6914 3.87797 13.8811 3.95085 14.0581C4.02374 14.2351 4.13096 14.3959 4.26631 14.5312C4.40166 14.6666 4.56248 14.7738 4.73947 14.8467C4.91647 14.9196 5.10615 14.9567 5.29756 14.9559L10.0037 14.9457L7.76855 17.1808L2.22165 17.1706C1.83551 17.1706 1.46519 17.324 1.19215 17.597C0.919107 17.8701 0.765715 18.2404 0.765715 18.6265C0.765714 19.0127 0.919107 19.383 1.19215 19.656C1.46519 19.9291 1.83551 20.0824 2.22165 20.0824L4.87719 20.0722L3.24695 21.7024C2.97502 21.9744 2.82226 22.3432 2.82226 22.7277C2.82226 23.1123 2.97502 23.4811 3.24695 23.753C3.51888 24.025 3.88769 24.1777 4.27226 24.1777C4.65682 24.1777 5.02563 24.025 5.29756 23.753L6.9278 22.1228L6.91754 24.7783C6.91676 24.9698 6.95388 25.1594 7.02677 25.3364C7.09966 25.5134 7.20687 25.6742 7.34223 25.8096C7.47758 25.9449 7.63839 26.0522 7.81539 26.1251C7.99238 26.1979 8.18206 26.2351 8.37348 26.2343C8.56489 26.2351 8.75457 26.1979 8.93156 26.1251C9.10856 26.0522 9.26937 25.9449 9.40473 25.8096C9.54008 25.6742 9.64729 25.5134 9.72018 25.3364C9.79307 25.1594 9.83019 24.9698 9.82941 24.7783L9.81916 19.2314L12.0543 16.9963L12.0441 21.7024C12.0433 21.8938 12.0804 22.0835 12.1533 22.2605C12.2262 22.4375 12.3334 22.5983 12.4688 22.7337C12.6041 22.869 12.7649 22.9762 12.9419 23.0491C13.1189 23.122 13.3086 23.1591 13.5 23.1584C13.6914 23.1591 13.8811 23.122 14.0581 23.0491C14.2351 22.9762 14.3959 22.869 14.5312 22.7337C14.6666 22.5983 14.7738 22.4375 14.8467 22.2605C14.9196 22.0835 14.9567 21.8938 14.9559 21.7024L14.9457 16.9963L17.1808 19.2314L17.1706 24.7783C17.1698 24.9698 17.2069 25.1594 17.2798 25.3364C17.3527 25.5134 17.4599 25.6742 17.5953 25.8096C17.7306 25.9449 17.8914 26.0522 18.0684 26.1251C18.2454 26.1979 18.4351 26.2351 18.6265 26.2343C18.8179 26.2351 19.0076 26.1979 19.1846 26.1251C19.3616 26.0522 19.5224 25.9449 19.6578 25.8096C19.7931 25.6742 19.9003 25.5134 19.9732 25.3364C20.0461 25.1594 20.0832 24.9698 20.0825 24.7783L20.0722 22.1228L21.7024 23.753C21.9744 24.025 22.3432 24.1777 22.7277 24.1777C23.1123 24.1777 23.4811 24.025 23.753 23.753C24.025 23.4811 24.1777 23.1123 24.1777 22.7277C24.1777 22.3432 24.025 21.9744 23.753 21.7024Z" fill="white" fill-opacity="0.4"/>
</svg>
